<?xml version="1.0" encoding="UTF-8"?>
<svg xmlns="http://www.w3.org/2000/svg" xmlns:xlink="http://www.w3.org/1999/xlink" width="48px" height="px" viewBox="0 0 23 23" version="1.1">
<g id="surface1">
<path style=" stroke:none;fill-rule:nonzero;fill:rgb(8.627451%,8.627451%,7.843137%);fill-opacity:1;" d="M 11.457031 0 C 5.128906 0 0 5.273438 0 11.777344 C 0 16.980469 3.28125 21.394531 7.835938 22.949219 C 8.40625 23.058594 8.617188 22.695312 8.617188 22.382812 C 8.617188 22.101562 8.605469 21.175781 8.601562 20.191406 C 5.414062 20.902344 4.742188 18.800781 4.742188 18.800781 C 4.21875 17.441406 3.46875 17.078125 3.46875 17.078125 C 2.429688 16.347656 3.546875 16.363281 3.546875 16.363281 C 4.699219 16.445312 5.304688 17.578125 5.304688 17.578125 C 6.324219 19.375 7.984375 18.855469 8.636719 18.554688 C 8.742188 17.792969 9.039062 17.273438 9.363281 16.980469 C 6.820312 16.683594 4.144531 15.671875 4.144531 11.160156 C 4.144531 9.875 4.59375 8.824219 5.328125 8 C 5.207031 7.703125 4.816406 6.503906 5.4375 4.882812 C 5.4375 4.882812 6.398438 4.566406 8.589844 6.089844 C 9.503906 5.828125 10.480469 5.699219 11.457031 5.695312 C 12.429688 5.699219 13.410156 5.828125 14.324219 6.089844 C 16.511719 4.566406 17.472656 4.882812 17.472656 4.882812 C 18.097656 6.503906 17.703125 7.703125 17.585938 8 C 18.320312 8.824219 18.765625 9.875 18.765625 11.160156 C 18.765625 15.683594 16.082031 16.679688 13.53125 16.972656 C 13.945312 17.335938 14.308594 18.054688 14.308594 19.152344 C 14.308594 20.726562 14.296875 21.996094 14.296875 22.382812 C 14.296875 22.695312 14.503906 23.0625 15.082031 22.949219 C 19.632812 21.390625 22.910156 16.976562 22.910156 11.777344 C 22.910156 5.273438 17.78125 0 11.457031 0 "/>
<path style=" stroke:none;fill-rule:nonzero;fill:rgb(8.627451%,8.627451%,7.843137%);fill-opacity:1;" d="M 4.289062 16.773438 C 4.265625 16.832031 4.175781 16.851562 4.09375 16.8125 C 4.011719 16.773438 3.964844 16.691406 3.992188 16.632812 C 4.015625 16.574219 4.105469 16.558594 4.1875 16.597656 C 4.273438 16.636719 4.320312 16.714844 4.289062 16.773438 M 4.855469 17.292969 C 4.800781 17.34375 4.691406 17.320312 4.621094 17.238281 C 4.546875 17.15625 4.53125 17.046875 4.585938 16.992188 C 4.644531 16.941406 4.746094 16.964844 4.820312 17.046875 C 4.898438 17.128906 4.910156 17.238281 4.855469 17.292969 M 5.242188 17.953125 C 5.171875 18.003906 5.054688 17.957031 4.984375 17.851562 C 4.914062 17.746094 4.914062 17.621094 4.984375 17.570312 C 5.058594 17.519531 5.171875 17.566406 5.242188 17.667969 C 5.3125 17.777344 5.3125 17.902344 5.242188 17.953125 M 5.894531 18.71875 C 5.832031 18.789062 5.699219 18.769531 5.601562 18.675781 C 5.5 18.578125 5.472656 18.445312 5.535156 18.371094 C 5.597656 18.300781 5.734375 18.320312 5.832031 18.417969 C 5.929688 18.511719 5.960938 18.648438 5.894531 18.71875 M 6.738281 18.976562 C 6.710938 19.070312 6.582031 19.113281 6.453125 19.074219 C 6.324219 19.03125 6.238281 18.925781 6.265625 18.832031 C 6.292969 18.738281 6.421875 18.695312 6.550781 18.734375 C 6.679688 18.777344 6.765625 18.882812 6.738281 18.976562 M 7.699219 19.085938 C 7.703125 19.183594 7.59375 19.265625 7.457031 19.265625 C 7.320312 19.269531 7.210938 19.191406 7.207031 19.09375 C 7.207031 18.996094 7.316406 18.917969 7.453125 18.914062 C 7.589844 18.914062 7.699219 18.992188 7.699219 19.085938 M 8.644531 19.050781 C 8.660156 19.144531 8.566406 19.242188 8.433594 19.269531 C 8.300781 19.292969 8.175781 19.234375 8.160156 19.140625 C 8.140625 19.042969 8.238281 18.945312 8.371094 18.921875 C 8.507812 18.898438 8.628906 18.953125 8.644531 19.050781 "/>
</g>
</svg>
