<?xml version="1.0" encoding="UTF-8"?>
<svg xmlns="http://www.w3.org/2000/svg" xmlns:xlink="http://www.w3.org/1999/xlink" width="48px" height="px" viewBox="0 0 24 28" version="1.1">
<g id="surface1">
<path style=" stroke:none;fill-rule:nonzero;fill:rgb(0%,35.294118%,37.254902%);fill-opacity:1;" d="M 2.1875 5.53125 C 1.941406 5.53125 1.738281 5.617188 1.632812 5.78125 C 1.527344 5.953125 1.542969 6.175781 1.65625 6.402344 L 4.40625 11.128906 C 4.410156 11.136719 4.410156 11.144531 4.40625 11.152344 L 0.0859375 18.722656 C -0.0273438 18.945312 -0.0234375 19.167969 0.0859375 19.34375 C 0.1875 19.507812 0.371094 19.617188 0.617188 19.617188 L 4.683594 19.617188 C 5.289062 19.617188 5.585938 19.210938 5.792969 18.839844 C 5.792969 18.839844 10.015625 11.417969 10.183594 11.128906 C 10.164062 11.101562 7.386719 6.289062 7.386719 6.289062 C 7.183594 5.929688 6.878906 5.53125 6.253906 5.53125 Z M 2.1875 5.53125 "/>
<path style=" stroke:none;fill-rule:nonzero;fill:rgb(83.137255%,83.921569%,0%);fill-opacity:1;" d="M 19.269531 0 C 18.664062 0 18.398438 0.378906 18.183594 0.769531 C 18.183594 0.769531 9.421875 16.199219 9.132812 16.703125 C 9.148438 16.730469 14.910156 27.230469 14.910156 27.230469 C 15.113281 27.589844 15.425781 28 16.046875 28 L 20.109375 28 C 20.355469 28 20.546875 27.910156 20.648438 27.742188 C 20.757812 27.570312 20.753906 27.34375 20.640625 27.117188 L 14.90625 16.714844 C 14.902344 16.707031 14.902344 16.699219 14.90625 16.691406 L 23.910156 0.882812 C 24.023438 0.65625 24.027344 0.429688 23.917969 0.257812 C 23.816406 0.0898438 23.625 0 23.378906 0 Z M 19.269531 0 "/>
</g>
</svg>
